<svg width="20" height="20" viewBox="0 0 20 20" fill="none" xmlns="http://www.w3.org/2000/svg">
<path d="M5 15L15 15L15 5L5 5L5 15Z" fill="#3FAB3C"/>
<path d="M14.197 0H5.81284C2.17102 0 -6.10352e-05 2.17 -6.10352e-05 5.81V14.18C-6.10352e-05 17.83 2.17102 20 5.81284 20H14.187C17.8288 20 19.9999 17.83 19.9999 14.19V5.81C20.0099 2.17 17.8388 0 14.197 0ZM14.0069 10.75H10.7553V14C10.7553 14.41 10.4151 14.75 10.0049 14.75C9.59472 14.75 9.25455 14.41 9.25455 14V10.75H6.00293C5.59273 10.75 5.25256 10.41 5.25256 10C5.25256 9.59 5.59273 9.25 6.00293 9.25H9.25455V6C9.25455 5.59 9.59472 5.25 10.0049 5.25C10.4151 5.25 10.7553 5.59 10.7553 6V9.25H14.0069C14.4171 9.25 14.7573 9.59 14.7573 10C14.7573 10.41 14.4171 10.75 14.0069 10.75Z" fill="#ECF7EC"/>
</svg>
