<svg width="60" height="60" viewBox="0 0 60 60" fill="none" xmlns="http://www.w3.org/2000/svg">
<path fill-rule="evenodd" clip-rule="evenodd" d="M30.0227 0C46.5909 0 60 13.442 60 30C60 46.558 46.5682 60 30.0227 60C19.1591 60 9.63636 54.2229 4.38636 45.5572C4.45455 44.5565 4.56818 43.533 4.72727 42.555C5.15909 39.7346 5.90909 37.0735 6.75 35.072C8.75 30.3412 11.1818 26.5883 13.2273 24.928C13.7045 26.9295 13.5909 30.6823 12.6136 36.6869C12.4091 37.9151 12.5 38.9386 12.8636 39.7801C13.8182 42.0091 15.5 42.6005 17.7727 41.8954C18.6591 41.6224 19.6364 41.0538 20.7045 40.235C23.7045 37.9378 28.1591 33.0478 31.8864 28.4534C32.4773 27.7256 33.0455 27.1342 33.5682 26.6793C33.2727 28.6581 32.25 31.7058 30.2273 36.1638C28.7955 39.2798 28.2727 41.4632 28.3636 42.9416C28.5682 45.8984 30.1818 47.0584 32.75 46.9674C33.9318 46.9219 35.2955 46.3988 36.7045 45.6027C40.3182 43.533 45.3182 38.9386 46.9545 37.3237L42.4318 32.7976C41.4091 33.8211 38.8636 36.1638 36.3864 38.0743C39.3636 31.3874 40.2727 26.975 39.9773 24.3366C39.7727 22.4488 39 21.1069 37.8182 20.2654C36.5455 19.3328 35.0455 19.1509 33.4318 19.5603C31.3864 20.0834 28.9545 21.8802 26.8864 24.4049C24.5 27.3389 21.8409 30.3639 19.5682 32.6156C20.0682 27.4071 19.7727 23.9045 18.9091 21.7892C18 19.5148 16.4773 18.3093 14.5455 18.0364C12.9091 17.7862 11.2045 18.3548 9.56818 19.583C6.65909 21.7665 3.31818 26.6338 0.818182 32.5474C0.636364 32.9795 0.454546 33.4572 0.272727 33.9348C0.0909093 32.6384 0 31.3192 0 29.9773C0.0227273 13.4193 13.4545 0 30.0227 0ZM48.4318 18.1274C51.8409 17.7635 54.9091 20.2199 55.2727 23.6543C55.5909 26.7248 53.0909 30.7051 50.9091 33.5481C50.7045 33.7983 50.4545 33.9575 50.1136 33.9803C49.7955 34.003 49.5 33.9348 49.25 33.7074C46.7727 31.5694 43.2273 27.9757 42.8864 24.9735C42.5455 21.539 45.0227 18.4913 48.4318 18.1274Z" fill="url(#paint0_linear_62_139)"/>
<defs>
<linearGradient id="paint0_linear_62_139" x1="47.8519" y1="6.24509" x2="13.8713" y2="51.4478" gradientUnits="userSpaceOnUse">
<stop stop-color="#3FAB3C"/>
<stop offset="1" stop-color="#76BA5D"/>
</linearGradient>
</defs>
</svg>
