<svg width="40" height="40" viewBox="0 0 40 40" fill="none" xmlns="http://www.w3.org/2000/svg">
<rect width="40" height="40" rx="20" fill="#ECF7EC"/>
<path d="M19.2087 22.4587L17.667 24.0003C17.342 24.3253 16.8253 24.3253 16.492 24.0087C16.4003 23.917 16.3087 23.8337 16.217 23.742C15.3587 22.8753 14.5837 21.967 13.892 21.017C13.2087 20.067 12.6587 19.117 12.2587 18.1753C11.867 17.2253 11.667 16.317 11.667 15.4503C11.667 14.8837 11.767 14.342 11.967 13.842C12.167 13.3337 12.4837 12.867 12.9253 12.4503C13.4587 11.9253 14.042 11.667 14.6587 11.667C14.892 11.667 15.1253 11.717 15.3337 11.817C15.5503 11.917 15.742 12.067 15.892 12.2837L17.8253 15.0087C17.9753 15.217 18.0837 15.4087 18.1587 15.592C18.2337 15.767 18.2753 15.942 18.2753 16.1003C18.2753 16.3003 18.217 16.5003 18.1003 16.692C17.992 16.8837 17.8337 17.0837 17.6337 17.2837L17.0003 17.942C16.9087 18.0337 16.867 18.142 16.867 18.2753C16.867 18.342 16.8753 18.4003 16.892 18.467C16.917 18.5337 16.942 18.5837 16.9587 18.6337C17.1087 18.9087 17.367 19.267 17.7337 19.7003C18.1087 20.1337 18.5087 20.5753 18.942 21.017C19.0253 21.1003 19.117 21.1837 19.2003 21.267C19.5337 21.592 19.542 22.1253 19.2087 22.4587Z" fill="#3FAB3C"/>
<path d="M28.3083 25.2752C28.3083 25.5085 28.2667 25.7502 28.1833 25.9835C28.1583 26.0502 28.1333 26.1169 28.1 26.1835C27.9583 26.4835 27.775 26.7669 27.5333 27.0335C27.125 27.4835 26.675 27.8085 26.1667 28.0169C26.1583 28.0169 26.15 28.0252 26.1417 28.0252C25.65 28.2252 25.1167 28.3335 24.5417 28.3335C23.6917 28.3335 22.7833 28.1335 21.825 27.7252C20.8667 27.3169 19.9083 26.7669 18.9583 26.0752C18.6333 25.8335 18.3083 25.5919 18 25.3335L20.725 22.6085C20.9583 22.7835 21.1667 22.9169 21.3417 23.0085C21.3833 23.0252 21.4333 23.0502 21.4917 23.0752C21.5583 23.1002 21.625 23.1085 21.7 23.1085C21.8417 23.1085 21.95 23.0585 22.0417 22.9669L22.675 22.3419C22.8833 22.1335 23.0833 21.9752 23.275 21.8752C23.4667 21.7585 23.6583 21.7002 23.8667 21.7002C24.025 21.7002 24.1917 21.7335 24.375 21.8085C24.5583 21.8835 24.75 21.9919 24.9583 22.1335L27.7167 24.0919C27.9333 24.2419 28.0833 24.4169 28.175 24.6252C28.2583 24.8335 28.3083 25.0419 28.3083 25.2752Z" fill="#3FAB3C"/>
</svg>
