<svg width="20" height="20" viewBox="0 0 20 20" fill="none" xmlns="http://www.w3.org/2000/svg">
<path d="M17.151 2.84896C16.9275 2.62552 16.6244 2.5 16.3084 2.5C15.9924 2.5 15.6893 2.62552 15.4658 2.84896L10 8.31474L4.53422 2.84896C4.31071 2.62552 4.00762 2.5 3.69159 2.5C3.37555 2.5 3.07246 2.62552 2.84896 2.84896C2.62552 3.07246 2.5 3.37555 2.5 3.69159C2.5 4.00762 2.62552 4.31071 2.84896 4.53422L8.31474 10L2.84896 15.4658C2.62552 15.6893 2.5 15.9924 2.5 16.3084C2.5 16.6244 2.62552 16.9275 2.84896 17.151C3.07246 17.3745 3.37555 17.5 3.69159 17.5C4.00762 17.5 4.31071 17.3745 4.53422 17.151L10 11.6853L15.4658 17.151C15.6893 17.3745 15.9924 17.5 16.3084 17.5C16.6244 17.5 16.9275 17.3745 17.151 17.151C17.3745 16.9275 17.5 16.6244 17.5 16.3084C17.5 15.9924 17.3745 15.6893 17.151 15.4658L11.6853 10L17.151 4.53422C17.3745 4.31071 17.5 4.00762 17.5 3.69159C17.5 3.37555 17.3745 3.07246 17.151 2.84896Z" fill="#FF4D4D"/>
</svg>
