<svg width="20" height="20" viewBox="0 0 20 20" fill="none" xmlns="http://www.w3.org/2000/svg">
<path d="M12.925 2.3584H7.075C5 2.3584 4.54167 3.39173 4.275 4.6584L3.33333 9.16673H16.6667L15.725 4.6584C15.4583 3.39173 15 2.3584 12.925 2.3584Z" stroke="#3FAB3C" stroke-width="1.5" stroke-linecap="round" stroke-linejoin="round"/>
<path d="M18.325 16.5165C18.4167 17.4915 17.6333 18.3332 16.6333 18.3332H15.0667C14.1667 18.3332 14.0417 17.9498 13.8833 17.4748L13.7167 16.9748C13.4833 16.2915 13.3333 15.8332 12.1333 15.8332H7.86667C6.66667 15.8332 6.49167 16.3498 6.28333 16.9748L6.11667 17.4748C5.95833 17.9498 5.83333 18.3332 4.93333 18.3332H3.36667C2.36667 18.3332 1.58333 17.4915 1.675 16.5165L2.14167 11.4415C2.25833 10.1915 2.5 9.1665 4.68333 9.1665H15.3167C17.5 9.1665 17.7417 10.1915 17.8583 11.4415L18.325 16.5165Z" stroke="#3FAB3C" stroke-width="1.5" stroke-linecap="round" stroke-linejoin="round"/>
<path d="M3.33333 6.6665H2.5" stroke="#3FAB3C" stroke-width="1.5" stroke-linecap="round" stroke-linejoin="round"/>
<path d="M17.5 6.6665H16.6667" stroke="#3FAB3C" stroke-width="1.5" stroke-linecap="round" stroke-linejoin="round"/>
<path d="M10 2.5V4.16667" stroke="#3FAB3C" stroke-width="1.5" stroke-linecap="round" stroke-linejoin="round"/>
<path d="M8.75 4.1665H11.25" stroke="#3FAB3C" stroke-width="1.5" stroke-linecap="round" stroke-linejoin="round"/>
<path d="M5 12.5H7.5" stroke="#3FAB3C" stroke-width="1.5" stroke-linecap="round" stroke-linejoin="round"/>
<path d="M12.5 12.5H15" stroke="#3FAB3C" stroke-width="1.5" stroke-linecap="round" stroke-linejoin="round"/>
</svg>
