<svg width="30" height="30" viewBox="0 0 30 30" fill="none" xmlns="http://www.w3.org/2000/svg">
<path d="M8.22418 21.2347C7.95137 21.5333 7.67855 21.8318 7.383 22.1533C7.56488 22.337 7.74675 22.5208 7.92863 22.6815C8.45153 23.0719 9.0881 23.2327 9.72467 23.3016C10.6113 23.3934 11.5207 23.3475 12.4074 23.3245C12.9985 23.3016 13.6123 23.3016 14.2034 23.4164C14.7718 23.5312 15.1582 23.8298 15.3174 24.4269C15.4765 25.024 15.0673 25.8737 14.2034 25.9426C13.1349 26.0344 12.0891 26.0574 11.0205 26.0344C10.3612 26.0115 9.70193 26.0115 9.04263 25.9426C7.76949 25.8048 6.67823 25.2306 5.72337 24.4039C4.60938 23.4164 3.97281 22.1763 3.72273 20.7295C3.44991 19.1679 3.13163 17.6292 2.85881 16.0676C2.74514 15.4246 2.67693 14.7586 2.69967 14.0926C2.7224 13.817 2.79061 13.5644 2.99522 13.3577C3.54085 12.8065 4.45023 12.8754 4.90493 13.5184C5.20048 13.9548 5.35962 14.46 5.45056 14.9882C5.6097 15.9068 5.74611 16.8484 5.90525 17.79C6.10986 18.8923 6.35994 19.9946 6.58729 21.0969C6.61002 21.0969 6.63276 21.1199 6.65549 21.1199C6.67823 21.074 6.7237 21.028 6.74643 20.9821C6.99651 20.7065 7.24659 20.4539 7.49668 20.1783C7.61035 20.0635 7.61035 19.9716 7.58761 19.8338C7.08745 17.3077 6.58729 14.7586 6.08713 12.2324C5.97345 11.6812 5.90525 11.1301 6.06439 10.5789C6.40541 9.31584 7.67855 8.44316 8.95169 8.55799C9.31544 8.60392 9.6792 8.74171 9.97475 8.94839C10.7023 9.40769 11.407 9.91293 12.1345 10.3952C12.4756 10.6248 12.7938 10.8315 13.1121 11.0841C13.6805 11.5434 14.3171 11.6583 15.0218 11.5205C15.8403 11.3597 16.6587 11.2219 17.4772 11.0841C17.9546 11.0153 18.4548 10.9693 18.9322 11.0612C19.5915 11.199 20.0234 11.6353 20.319 12.2094C20.4554 12.485 20.4099 12.7836 20.2053 13.0362C20.0007 13.3118 19.7279 13.4955 19.4551 13.6562C18.773 14.0237 18.0228 14.2763 17.2726 14.4141C16.1586 14.6437 15.0218 14.8275 13.8851 14.9882C13.3395 15.0801 12.7938 15.0112 12.2709 14.7586C12.2709 14.7586 12.2482 14.7586 12.2027 14.7586C12.2255 14.9193 12.2482 15.0801 12.2937 15.2408C12.3391 15.3557 12.3164 15.4475 12.2482 15.5164C12.1118 15.6772 11.9754 15.8379 11.8163 15.9757C10.6113 17.1699 9.42912 18.3641 8.22418 19.5583C8.08777 19.6961 7.9741 19.8568 7.83769 19.9946C7.74676 20.0865 7.72402 20.1783 7.79222 20.2932C7.9059 20.5458 7.99683 20.7984 8.13324 21.074C8.24691 20.9821 8.33785 20.9132 8.42879 20.8213C9.11083 20.1324 9.77014 19.4434 10.4749 18.7545C10.9978 18.2263 11.5434 17.6981 12.0891 17.1699C12.2255 17.0321 12.4074 16.9402 12.5892 16.8025C12.6574 17.1469 12.7029 17.4455 12.7484 17.767C12.7938 17.767 12.862 17.767 12.9302 17.767C14.067 17.767 15.2037 17.767 16.3177 17.767C16.5223 17.767 16.7042 17.79 16.9088 17.8129C17.3408 17.8589 17.6818 18.0885 18.0001 18.3871C18.6821 19.0301 19.3641 19.6961 20.0234 20.362C21.4557 21.8318 22.888 23.3245 24.3203 24.8173C24.5249 25.024 24.684 25.2536 24.8659 25.4603C25.3434 26.0574 25.3661 26.8382 24.9114 27.4583C24.4794 28.0554 23.7747 28.285 23.0926 28.0094C22.7516 27.8716 22.4788 27.6649 22.2287 27.4123C20.7737 25.9426 19.3187 24.4728 17.8637 23.003C17.7045 22.8423 17.5454 22.6586 17.409 22.4978C17.2271 22.2682 16.977 22.1533 16.7042 22.1533C16.3177 22.1533 15.9312 22.1304 15.5447 22.1304C13.7942 22.1304 12.0663 22.1304 10.3158 22.1304C9.65646 22.1304 9.06536 21.9696 8.5652 21.5103C8.47426 21.4184 8.36059 21.3266 8.22418 21.2347Z" fill="#3FAB3C"/>
<path d="M8.4972 8.02965C6.7239 8.02965 5.40529 6.62878 5.42802 4.79157C5.42802 3.27587 6.83757 1.875 8.36079 1.875C10.225 1.89797 11.5664 3.18401 11.5664 4.95233C11.5664 6.65174 10.1796 8.02965 8.4972 8.02965Z" fill="#3FAB3C"/>
<path d="M22.069 15.1491C21.728 15.3558 21.387 15.5625 21.046 15.7692C20.3867 16.1825 19.7046 16.5959 19.0453 17.0093C18.818 17.1471 18.5906 17.1471 18.3633 17.0093C18.1359 16.8715 18.045 16.6418 18.0905 16.3892C18.1132 16.1596 18.2723 16.0218 18.4542 15.9069C19.4318 15.3099 20.4094 14.6898 21.4097 14.0927C22.7511 13.266 24.1151 12.4163 25.4565 11.5895C25.6156 11.4976 25.7748 11.4288 25.9566 11.4517C26.2067 11.4976 26.4113 11.6814 26.4795 11.934C26.5477 12.2096 26.4341 12.4622 26.184 12.6229C25.6384 12.9674 25.1155 13.2889 24.5698 13.6334C24.0924 13.9319 23.6377 14.2075 23.1376 14.5061C23.274 14.7587 23.4331 14.9883 23.5695 15.218C24.7517 17.193 25.9566 19.145 27.1616 21.12C27.298 21.3497 27.3662 21.6023 27.2298 21.8549C27.0024 22.2912 26.4113 22.2912 26.1385 21.8549C25.8884 21.4415 25.6384 21.0282 25.3655 20.5918C24.297 18.8235 23.2285 17.0552 22.16 15.2869C22.1372 15.218 22.0918 15.195 22.069 15.1491Z" fill="#3FAB3C"/>
<path d="M3.4502 7.91511C3.74575 7.63953 4.06403 7.34098 4.29138 7.11133C4.6324 7.43284 4.97341 7.73139 5.2917 8.0529C5.60998 8.37441 5.92827 8.71888 6.24655 9.0404C6.33749 9.13226 6.33749 9.17819 6.26929 9.27005C6.08741 9.56859 5.92827 9.86714 5.76913 10.1887C5.70092 10.1427 5.60998 10.0968 5.51905 10.0509C4.74607 9.45377 4.06403 8.74185 3.4502 7.984C3.4502 7.96104 3.4502 7.96104 3.4502 7.91511Z" fill="#3FAB3C"/>
</svg>
