<svg width="20" height="20" viewBox="0 0 20 20" fill="none" xmlns="http://www.w3.org/2000/svg">
<path d="M10.0003 1.66675C5.40866 1.66675 1.66699 5.40841 1.66699 10.0001C1.66699 14.5917 5.40866 18.3334 10.0003 18.3334C14.592 18.3334 18.3337 14.5917 18.3337 10.0001C18.3337 5.40841 14.592 1.66675 10.0003 1.66675ZM13.6253 12.9751C13.5087 13.1751 13.3003 13.2834 13.0837 13.2834C12.9753 13.2834 12.867 13.2584 12.767 13.1917L10.1837 11.6501C9.54199 11.2667 9.06699 10.4251 9.06699 9.68341V6.26675C9.06699 5.92508 9.35033 5.64175 9.69199 5.64175C10.0337 5.64175 10.317 5.92508 10.317 6.26675V9.68341C10.317 9.98341 10.567 10.4251 10.8253 10.5751L13.4087 12.1167C13.7087 12.2917 13.8087 12.6751 13.6253 12.9751Z" fill="#ACACAC"/>
</svg>
