<svg width="30" height="30" viewBox="0 0 30 30" fill="none" xmlns="http://www.w3.org/2000/svg">
<rect width="30" height="30" rx="5" fill="#3FAB3C"/>
<path d="M9.47925 21.2311C9.29753 21.2311 9.11581 21.1615 8.97668 21.0238C8.69983 20.747 8.69983 20.297 8.97668 20.0202L20.0192 8.97857C20.2961 8.70175 20.7461 8.70175 21.0229 8.97857C21.2998 9.25539 21.2998 9.7054 21.0229 9.98222L9.98041 21.0238C9.8427 21.1615 9.66098 21.2311 9.47925 21.2311Z" fill="white"/>
<path d="M20.5218 21.2311C20.3401 21.2311 20.1583 21.1615 20.0192 21.0238L8.97668 9.9808C8.69983 9.70398 8.69983 9.25397 8.97668 8.97715C9.25352 8.70033 9.70357 8.70033 9.98041 8.97715L21.0229 20.0187C21.2998 20.2956 21.2998 20.7456 21.0229 21.0224C20.8852 21.1615 20.7035 21.2311 20.5218 21.2311Z" fill="white"/>
</svg>
