<svg width="30" height="30" viewBox="0 0 30 30" fill="none" xmlns="http://www.w3.org/2000/svg">
<path d="M25.2623 9.77481L15.6373 15.3498C15.2498 15.5748 14.7623 15.5748 14.3623 15.3498L4.73728 9.77481C4.04978 9.3748 3.87478 8.4373 4.39978 7.8498C4.76228 7.4373 5.17478 7.0998 5.61228 6.8623L12.3873 3.1123C13.8373 2.2998 16.1873 2.2998 17.6373 3.1123L24.4123 6.8623C24.8498 7.0998 25.2623 7.4498 25.6248 7.8498C26.1248 8.4373 25.9498 9.3748 25.2623 9.77481Z" fill="#3FAB3C"/>
<path d="M14.2871 17.6751V26.2001C14.2871 27.1501 13.3246 27.7751 12.4746 27.3626C9.89961 26.1001 5.56211 23.7376 5.56211 23.7376C4.03711 22.8751 2.78711 20.7001 2.78711 18.9126V12.4626C2.78711 11.4751 3.82461 10.8501 4.67461 11.3376L13.6621 16.5501C14.0371 16.7876 14.2871 17.2126 14.2871 17.6751Z" fill="#3FAB3C"/>
<path d="M15.7129 17.6751V26.2001C15.7129 27.1501 16.6754 27.7751 17.5254 27.3626C20.1004 26.1001 24.4379 23.7376 24.4379 23.7376C25.9629 22.8751 27.2129 20.7001 27.2129 18.9126V12.4626C27.2129 11.4751 26.1754 10.8501 25.3254 11.3376L16.3379 16.5501C15.9629 16.7876 15.7129 17.2126 15.7129 17.6751Z" fill="#3FAB3C"/>
</svg>
