<svg width="44" height="44" viewBox="0 0 44 44" fill="none" xmlns="http://www.w3.org/2000/svg">
<rect width="44" height="44" rx="10" fill="#ECF7EC"/>
<path d="M28.8418 18.5166L22.4252 22.2333C22.1668 22.3833 21.8418 22.3833 21.5752 22.2333L15.1585 18.5166C14.7002 18.25 14.5835 17.625 14.9335 17.2333C15.1752 16.9583 15.4502 16.7333 15.7418 16.575L20.2585 14.075C21.2252 13.5333 22.7918 13.5333 23.7585 14.075L28.2752 16.575C28.5668 16.7333 28.8418 16.9666 29.0835 17.2333C29.4168 17.625 29.3002 18.25 28.8418 18.5166Z" fill="#3FAB3C"/>
<path d="M21.5251 23.7833V29.4666C21.5251 30.1 20.8834 30.5166 20.3167 30.2416C18.6001 29.4 15.7084 27.825 15.7084 27.825C14.6917 27.25 13.8584 25.8 13.8584 24.6083V20.3083C13.8584 19.65 14.5501 19.2333 15.1167 19.5583L21.1084 23.0333C21.3584 23.1916 21.5251 23.475 21.5251 23.7833Z" fill="#3FAB3C"/>
<path d="M22.4746 23.7833V29.4666C22.4746 30.1 23.1163 30.5166 23.6829 30.2416C25.3996 29.4 28.2913 27.825 28.2913 27.825C29.3079 27.25 30.1413 25.8 30.1413 24.6083V20.3083C30.1413 19.65 29.4496 19.2333 28.8829 19.5583L22.8913 23.0333C22.6413 23.1916 22.4746 23.475 22.4746 23.7833Z" fill="#3FAB3C"/>
</svg>
