<svg width="46" height="46" viewBox="0 0 46 46" fill="none" xmlns="http://www.w3.org/2000/svg">
<path d="M12.6104 32.5596C12.1921 33.0174 11.7738 33.4752 11.3206 33.9682C11.5995 34.2499 11.8784 34.5316 12.1572 34.7781C12.959 35.3767 13.9351 35.6232 14.9112 35.7288C16.2707 35.8697 17.6651 35.7993 19.0246 35.764C19.931 35.7288 20.8722 35.7288 21.7785 35.9049C22.65 36.081 23.2426 36.5387 23.4867 37.4543C23.7307 38.3698 23.1032 39.6727 21.7785 39.7783C20.1401 39.9192 18.5366 39.9544 16.8982 39.9192C15.8872 39.884 14.8763 39.884 13.8654 39.7783C11.9132 39.5671 10.2399 38.6867 8.77584 37.4191C7.06771 35.9049 6.09164 34.0034 5.70818 31.785C5.28986 29.3905 4.80183 27.0312 4.38351 24.6367C4.20921 23.6507 4.10463 22.6295 4.13949 21.6084C4.17435 21.1858 4.27893 20.7985 4.59267 20.4815C5.4293 19.6364 6.82369 19.7421 7.52089 20.728C7.97406 21.3971 8.21808 22.1718 8.35752 22.9817C8.60154 24.3902 8.8107 25.8339 9.05472 27.2777C9.36845 28.9679 9.75191 30.6581 10.1005 32.3484C10.1354 32.3484 10.1702 32.3836 10.2051 32.3836C10.2399 32.3132 10.3097 32.2427 10.3445 32.1723C10.728 31.7497 11.1114 31.3624 11.4949 30.9398C11.6692 30.7638 11.6692 30.6229 11.6343 30.4116C10.8674 26.5382 10.1005 22.6295 9.3336 18.7561C9.1593 17.911 9.05472 17.0659 9.29874 16.2207C9.82163 14.284 11.7738 12.9459 13.7259 13.122C14.2837 13.1924 14.8414 13.4037 15.2946 13.7206C16.4101 14.4249 17.4908 15.1996 18.6063 15.939C19.1292 16.2912 19.6172 16.6081 20.1053 16.9954C20.9768 17.6997 21.9528 17.8758 23.0335 17.6645C24.2884 17.418 25.5434 17.2067 26.7983 16.9954C27.5304 16.8898 28.2973 16.8194 29.0294 16.9602C30.0403 17.1715 30.7026 17.8405 31.1558 18.7209C31.365 19.1434 31.2952 19.6012 30.9815 19.9886C30.6678 20.4111 30.2494 20.6928 29.8311 20.9393C28.7853 21.5027 27.635 21.8901 26.4846 22.1013C24.7765 22.4535 23.0335 22.7352 21.2905 22.9817C20.4539 23.1225 19.6172 23.0169 18.8154 22.6295C18.8154 22.6295 18.7806 22.6295 18.7109 22.6295C18.7457 22.876 18.7806 23.1225 18.8503 23.369C18.92 23.5451 18.8852 23.6859 18.7806 23.7916C18.5714 24.0381 18.3623 24.2846 18.1183 24.4958C16.2707 26.3269 14.458 28.158 12.6104 29.9891C12.4013 30.2004 12.227 30.4469 12.0178 30.6581C11.8784 30.799 11.8435 30.9398 11.9481 31.1159C12.1224 31.5033 12.2618 31.8906 12.471 32.3132C12.6453 32.1723 12.7847 32.0667 12.9241 31.9258C13.9699 30.8694 14.9809 29.813 16.0615 28.7566C16.8633 27.9467 17.6999 27.1368 18.5366 26.3269C18.7457 26.1156 19.0246 25.9748 19.3035 25.7635C19.4081 26.2917 19.4778 26.7495 19.5475 27.2425C19.6172 27.2425 19.7218 27.2425 19.8264 27.2425C21.5694 27.2425 23.3124 27.2425 25.0205 27.2425C25.3342 27.2425 25.6131 27.2777 25.9268 27.3129C26.5892 27.3833 27.1121 27.7354 27.6001 28.1932C28.6459 29.1792 29.6917 30.2004 30.7026 31.2215C32.8988 33.4752 35.095 35.764 37.2911 38.0529C37.6049 38.3698 37.8489 38.7219 38.1278 39.0389C38.8598 39.9544 38.8947 41.1517 38.1975 42.1024C37.5351 43.018 36.4545 43.3701 35.4087 42.9475C34.8858 42.7363 34.4675 42.4193 34.084 42.032C31.853 39.7783 29.622 37.5247 27.3909 35.2711C27.1469 35.0246 26.9029 34.7429 26.6938 34.4964C26.4149 34.1442 26.0314 33.9682 25.6131 33.9682C25.0205 33.9682 24.4279 33.933 23.8353 33.933C21.1511 33.933 18.5017 33.933 15.8175 33.933C14.8066 33.933 13.9002 33.6865 13.1333 32.9822C12.9939 32.8414 12.8196 32.7005 12.6104 32.5596Z" fill="#3FAB3C"/>
<path d="M13.0286 12.3121C10.3095 12.3121 8.28764 10.1641 8.3225 7.34707C8.3225 5.023 10.4838 2.875 12.8194 2.875C15.6779 2.91021 17.7346 4.88215 17.7346 7.59357C17.7346 10.1993 15.6082 12.3121 13.0286 12.3121Z" fill="#3FAB3C"/>
<path d="M33.8399 23.2281C33.317 23.5451 32.7941 23.862 32.2712 24.1789C31.2603 24.8127 30.2145 25.4466 29.2036 26.0804C28.855 26.2917 28.5064 26.2917 28.1578 26.0804C27.8092 25.8691 27.6697 25.517 27.7394 25.1297C27.7743 24.7775 28.0183 24.5662 28.2972 24.3902C29.7962 23.4746 31.2951 22.5239 32.829 21.6083C34.8857 20.3407 36.9773 19.0378 39.034 17.7701C39.278 17.6293 39.522 17.5236 39.8009 17.5588C40.1844 17.6293 40.4981 17.911 40.6027 18.2983C40.7073 18.7209 40.533 19.1082 40.1495 19.3547C39.3129 19.8829 38.5111 20.3759 37.6745 20.9041C36.9424 21.3618 36.2452 21.7844 35.4783 22.2422C35.6875 22.6295 35.9315 22.9817 36.1406 23.3338C37.9534 26.3621 39.8009 29.3552 41.6485 32.3836C41.8576 32.7357 41.9622 33.123 41.7531 33.5104C41.4045 34.1794 40.4981 34.1794 40.0798 33.5104C39.6963 32.8766 39.3129 32.2427 38.8946 31.5737C37.2562 28.8623 35.6178 26.1508 33.9793 23.4394C33.9445 23.3338 33.8748 23.2986 33.8399 23.2281Z" fill="#3FAB3C"/>
<path d="M5.28992 12.1363C5.74309 11.7137 6.23113 11.2559 6.57973 10.9038C7.10262 11.3968 7.62552 11.8546 8.11356 12.3476C8.60159 12.8405 9.08963 13.3687 9.57767 13.8617C9.7171 14.0026 9.7171 14.073 9.61252 14.2138C9.33365 14.6716 9.08963 15.1294 8.84561 15.6224C8.74103 15.5519 8.60159 15.4815 8.46215 15.4111C7.27692 14.4956 6.23113 13.4039 5.28992 12.2419C5.28992 12.2067 5.28992 12.2067 5.28992 12.1363Z" fill="#3FAB3C"/>
</svg>
