<svg width="44" height="44" viewBox="0 0 44 44" fill="none" xmlns="http://www.w3.org/2000/svg">
<rect width="44" height="44" rx="10" fill="#ECF7EC"/>
<path d="M17.4828 26.1564C17.3009 26.3554 17.119 26.5545 16.922 26.7688C17.0433 26.8913 17.1645 27.0138 17.2858 27.1209C17.6344 27.3812 18.0587 27.4884 18.4831 27.5343C19.0742 27.5955 19.6805 27.5649 20.2716 27.5496C20.6656 27.5343 21.0749 27.5343 21.4689 27.6109C21.8478 27.6874 22.1055 27.8864 22.2116 28.2845C22.3177 28.6826 22.0449 29.249 21.4689 29.295C20.7566 29.3562 20.0594 29.3715 19.347 29.3562C18.9075 29.3409 18.468 29.3409 18.0284 29.295C17.1797 29.2031 16.4522 28.8204 15.8156 28.2692C15.0729 27.6109 14.6485 26.7841 14.4818 25.8196C14.2999 24.7785 14.0878 23.7527 13.9059 22.7116C13.8301 22.283 13.7846 21.839 13.7998 21.395C13.8149 21.2112 13.8604 21.0428 13.9968 20.905C14.3606 20.5376 14.9668 20.5835 15.27 21.0122C15.467 21.3031 15.5731 21.6399 15.6337 21.9921C15.7398 22.6045 15.8307 23.2322 15.9368 23.8599C16.0732 24.5948 16.24 25.3297 16.3915 26.0645C16.4067 26.0645 16.4218 26.0798 16.437 26.0798C16.4522 26.0492 16.4825 26.0186 16.4976 25.988C16.6643 25.8043 16.8311 25.6359 16.9978 25.4521C17.0736 25.3756 17.0736 25.3143 17.0584 25.2225C16.725 23.5384 16.3915 21.839 16.0581 20.1549C15.9823 19.7874 15.9368 19.42 16.0429 19.0525C16.2703 18.2105 17.119 17.6287 17.9678 17.7052C18.2103 17.7359 18.4528 17.8277 18.6498 17.9655C19.1348 18.2717 19.6047 18.6085 20.0897 18.93C20.317 19.0831 20.5292 19.2209 20.7414 19.3894C21.1203 19.6956 21.5447 19.7721 22.0146 19.6802C22.5602 19.5731 23.1058 19.4812 23.6514 19.3894C23.9697 19.3434 24.3032 19.3128 24.6215 19.374C25.061 19.4659 25.349 19.7568 25.546 20.1395C25.6369 20.3233 25.6066 20.5223 25.4702 20.6907C25.3338 20.8744 25.1519 20.9969 24.9701 21.1041C24.5154 21.349 24.0152 21.5174 23.515 21.6093C22.7724 21.7624 22.0146 21.8849 21.2567 21.9921C20.893 22.0533 20.5292 22.0074 20.1806 21.839C20.1806 21.839 20.1655 21.839 20.1352 21.839C20.1503 21.9461 20.1655 22.0533 20.1958 22.1605C20.2261 22.237 20.2109 22.2983 20.1655 22.3442C20.0745 22.4514 19.9836 22.5585 19.8775 22.6504C19.0742 23.4465 18.2861 24.2426 17.4828 25.0388C17.3918 25.1306 17.3161 25.2378 17.2251 25.3297C17.1645 25.3909 17.1493 25.4521 17.1948 25.5287C17.2706 25.6971 17.3312 25.8655 17.4222 26.0492C17.4979 25.988 17.5586 25.9421 17.6192 25.8808C18.0739 25.4215 18.5134 24.9622 18.9833 24.5029C19.3319 24.1508 19.6956 23.7986 20.0594 23.4465C20.1503 23.3547 20.2716 23.2934 20.3928 23.2016C20.4383 23.4312 20.4686 23.6302 20.4989 23.8446C20.5292 23.8446 20.5747 23.8446 20.6202 23.8446C21.378 23.8446 22.1358 23.8446 22.8785 23.8446C23.0149 23.8446 23.1361 23.8599 23.2725 23.8752C23.5605 23.9058 23.7879 24.0589 24 24.258C24.4547 24.6866 24.9094 25.1306 25.349 25.5746C26.3038 26.5545 27.2587 27.5496 28.2135 28.5448C28.3499 28.6826 28.456 28.8357 28.5773 28.9735C28.8956 29.3715 28.9107 29.8921 28.6076 30.3054C28.3196 30.7035 27.8498 30.8566 27.3951 30.6729C27.1677 30.581 26.9859 30.4432 26.8191 30.2748C25.8491 29.295 24.8791 28.3151 23.9091 27.3353C23.803 27.2281 23.6969 27.1056 23.606 26.9985C23.4847 26.8454 23.318 26.7688 23.1361 26.7688C22.8785 26.7688 22.6208 26.7535 22.3632 26.7535C21.1961 26.7535 20.0442 26.7535 18.8772 26.7535C18.4376 26.7535 18.0436 26.6463 17.7101 26.3401C17.6495 26.2789 17.5737 26.2176 17.4828 26.1564Z" fill="#3FAB3C"/>
<path d="M17.6645 17.3531C16.4823 17.3531 15.6032 16.4192 15.6184 15.1944C15.6184 14.1839 16.5581 13.25 17.5735 13.25C18.8164 13.2653 19.7106 14.1227 19.7106 15.3016C19.7106 16.4345 18.786 17.3531 17.6645 17.3531Z" fill="#3FAB3C"/>
<path d="M26.7127 22.0992C26.4853 22.237 26.258 22.3748 26.0306 22.5126C25.5911 22.7882 25.1364 23.0638 24.6969 23.3394C24.5453 23.4312 24.3938 23.4312 24.2422 23.3394C24.0906 23.2475 24.03 23.0944 24.0603 22.926C24.0755 22.7729 24.1816 22.681 24.3028 22.6045C24.9545 22.2064 25.6063 21.793 26.2732 21.395C27.1674 20.8438 28.0768 20.2773 28.971 19.7262C29.0771 19.6649 29.1832 19.619 29.3044 19.6343C29.4712 19.6649 29.6076 19.7874 29.653 19.9558C29.6985 20.1395 29.6227 20.308 29.456 20.4151C29.0922 20.6448 28.7436 20.8591 28.3799 21.0888C28.0616 21.2878 27.7585 21.4715 27.425 21.6706C27.516 21.839 27.6221 21.9921 27.713 22.1452C28.5011 23.4618 29.3044 24.7632 30.1077 26.0799C30.1987 26.233 30.2441 26.4014 30.1532 26.5698C30.0016 26.8607 29.6076 26.8607 29.4257 26.5698C29.259 26.2942 29.0922 26.0186 28.9104 25.7277C28.198 24.5488 27.4857 23.37 26.7733 22.1911C26.7582 22.1452 26.7278 22.1299 26.7127 22.0992Z" fill="#3FAB3C"/>
<path d="M14.2998 17.2766C14.4968 17.0929 14.709 16.8938 14.8606 16.7407C15.0879 16.9551 15.3153 17.1541 15.5275 17.3684C15.7397 17.5828 15.9519 17.8124 16.164 18.0268C16.2247 18.088 16.2247 18.1186 16.1792 18.1799C16.0579 18.3789 15.9519 18.5779 15.8458 18.7923C15.8003 18.7617 15.7397 18.731 15.679 18.7004C15.1637 18.3024 14.709 17.8277 14.2998 17.3225C14.2998 17.3072 14.2998 17.3072 14.2998 17.2766Z" fill="#3FAB3C"/>
</svg>
