<svg width="30" height="30" viewBox="0 0 30 30" fill="none" xmlns="http://www.w3.org/2000/svg">
<rect width="30" height="30" rx="5" fill="#3FAB3C"/>
<path d="M9.4795 21.2308C9.29778 21.2308 9.11605 21.1613 8.97692 21.0236C8.70008 20.7467 8.70008 20.2967 8.97692 20.0199L20.0195 8.97832C20.2963 8.7015 20.7463 8.7015 21.0232 8.97832C21.3 9.25514 21.3 9.70515 21.0232 9.98197L9.98066 21.0236C9.84295 21.1613 9.66122 21.2308 9.4795 21.2308Z" fill="white"/>
<path d="M20.522 21.2308C20.3403 21.2308 20.1586 21.1613 20.0195 21.0236L8.97692 9.98055C8.70008 9.70373 8.70008 9.25372 8.97692 8.9769C9.25376 8.70008 9.70381 8.70008 9.98066 8.9769L21.0232 20.0185C21.3 20.2953 21.3 20.7453 21.0232 21.0221C20.8855 21.1613 20.7038 21.2308 20.522 21.2308Z" fill="white"/>
</svg>
