<svg width="30" height="30" viewBox="0 0 30 30" fill="none" xmlns="http://www.w3.org/2000/svg">
<rect width="30" height="30" rx="15" fill="#EA4335"/>
<path fill-rule="evenodd" clip-rule="evenodd" d="M22.2 15.1705C22.2 14.6387 22.1523 14.1273 22.0637 13.6364H15V16.5375H19.0364C18.8625 17.475 18.3341 18.2693 17.5398 18.8012V20.683H19.9636C21.3818 19.3773 22.2 17.4546 22.2 15.1705Z" fill="white"/>
<path fill-rule="evenodd" clip-rule="evenodd" d="M14.9997 22.5C17.0247 22.5 18.7227 21.8284 19.9636 20.683L17.5398 18.8012C16.8682 19.2512 16.0088 19.517 14.9997 19.517C13.0463 19.517 11.3929 18.1977 10.8031 16.425H8.29742V18.3681C9.53152 20.8193 12.0679 22.5 14.9997 22.5Z" fill="white"/>
<path fill-rule="evenodd" clip-rule="evenodd" d="M10.8031 16.425C10.6531 15.975 10.5682 15.4943 10.5682 15C10.5682 14.5056 10.6534 14.025 10.8034 13.575V11.6318H8.29773C7.78977 12.6443 7.5 13.7897 7.5 15C7.5 16.2102 7.78947 17.3556 8.29742 18.3681L10.8031 16.425Z" fill="white"/>
<path fill-rule="evenodd" clip-rule="evenodd" d="M14.9997 10.483C16.1009 10.483 17.0895 10.8614 17.8668 11.6046L20.0179 9.45341C18.719 8.24318 17.0213 7.5 14.9997 7.5C12.0679 7.5 9.53182 9.18063 8.29773 11.6318L10.8034 13.575C11.3932 11.8022 13.0463 10.483 14.9997 10.483Z" fill="white"/>
</svg>
