<svg width="20" height="20" viewBox="0 0 20 20" fill="none" xmlns="http://www.w3.org/2000/svg">
<g clip-path="url(#clip0_483_11534)">
<path d="M4.16667 8.3335C3.25 8.3335 2.5 9.0835 2.5 10.0002C2.5 10.9168 3.25 11.6668 4.16667 11.6668C5.08333 11.6668 5.83333 10.9168 5.83333 10.0002C5.83333 9.0835 5.08333 8.3335 4.16667 8.3335Z" fill="black"/>
<path d="M15.8337 8.3335C14.917 8.3335 14.167 9.0835 14.167 10.0002C14.167 10.9168 14.917 11.6668 15.8337 11.6668C16.7503 11.6668 17.5003 10.9168 17.5003 10.0002C17.5003 9.0835 16.7503 8.3335 15.8337 8.3335Z" fill="black"/>
<path d="M9.99967 8.3335C9.08301 8.3335 8.33301 9.0835 8.33301 10.0002C8.33301 10.9168 9.08301 11.6668 9.99967 11.6668C10.9163 11.6668 11.6663 10.9168 11.6663 10.0002C11.6663 9.0835 10.9163 8.3335 9.99967 8.3335Z" fill="black"/>
</g>
<defs>
<clipPath id="clip0_483_11534">
<rect width="20" height="20" fill="white"/>
</clipPath>
</defs>
</svg>
