<svg width="46" height="46" viewBox="0 0 46 46" fill="none" xmlns="http://www.w3.org/2000/svg">
<path d="M14.6899 42.4013C14.0843 41.7909 13.3831 41.4697 12.5862 41.4697C11.3431 41.4697 10.2594 42.3049 9.90875 43.4934C9.87688 43.654 9.81313 43.6861 9.65376 43.654C9.20752 43.5576 8.76128 43.4613 8.34691 43.2043C7.48631 42.6582 7.04007 41.6624 7.23131 40.6667C7.61381 38.8036 8.02818 36.9726 8.41067 35.1096C8.69753 33.6962 9.01627 32.315 9.30314 30.9016C9.59001 29.4561 10.8969 28.5888 12.3312 28.91C13.5743 29.1991 14.8174 29.4561 16.0605 29.7131C16.0924 29.7131 16.1242 29.7131 16.188 29.7452C16.2199 29.5525 16.2836 29.3276 16.3155 29.1349C16.5386 28.107 16.7617 27.047 16.9848 26.0191C17.0167 25.8906 16.9848 25.8263 16.8892 25.73C16.0924 25.1197 15.8055 24.2203 16.0605 23.2566C16.6661 21.265 17.2717 19.2414 17.8773 17.2498C18.0048 16.8001 18.1642 16.3183 18.2917 15.8686C18.6104 14.8407 19.2479 14.0376 20.1723 13.5558C22.0529 12.5279 23.9334 11.5321 25.814 10.5363C26.3878 10.2472 26.9934 9.99024 27.6308 9.89388C29.0971 9.66903 30.5314 10.4078 31.2645 11.7891C31.647 12.5279 31.7426 13.2988 31.647 14.1019C31.4558 15.2904 31.3283 16.4789 31.1689 17.6674C30.9776 18.9844 30.7864 20.3335 30.5952 21.6505C30.4358 22.839 30.2764 24.0275 30.117 25.1839C29.9895 25.9548 30.2764 26.533 30.8501 27.047C32.0295 28.0428 33.177 29.0707 34.3244 30.0664C35.185 30.8374 35.6632 31.7689 35.7588 32.9253C35.9182 35.1738 36.1094 37.4224 36.2688 39.6388C36.3644 40.7952 36.46 41.9515 36.5238 43.0758C36.6194 44.3928 35.5994 45.6134 34.2926 45.8383C32.9538 46.0631 31.6151 45.2601 31.2964 43.9431C31.137 43.3649 31.137 42.7546 31.0733 42.1443C30.9139 40.1206 30.7864 38.0969 30.627 36.0732C30.5633 35.3666 30.5314 34.6599 30.4677 33.9853C30.4677 33.8889 30.4039 33.7605 30.3083 33.6962C28.4596 32.0901 26.6427 30.5161 24.794 28.91C23.8697 28.107 23.2003 27.1755 22.9772 25.9227C22.8497 25.1197 22.9135 24.3166 23.0091 23.5457C23.3278 21.265 23.6466 18.9844 23.9653 16.6716C23.9653 16.6395 23.9653 16.6395 23.9653 16.5752C23.9016 16.6074 23.8697 16.6074 23.8059 16.6395C23.4234 16.8322 23.041 17.0249 22.6585 17.2498C22.5947 17.2819 22.4991 17.3783 22.4672 17.4747C21.766 19.7553 21.0648 22.0681 20.3635 24.3487C20.0448 25.4088 19.3435 25.987 18.2598 26.0512C18.0686 26.0512 18.1004 26.2118 18.0686 26.3082C17.8773 27.1755 17.6861 28.0428 17.5267 28.8779C17.0486 31.0943 16.6023 33.3107 16.1242 35.5272C15.7736 37.2296 15.3911 38.9321 15.0405 40.6667C14.9449 41.277 14.8174 41.8231 14.6899 42.4013Z" fill="#3FAB3C"/>
<path d="M22.9771 28.8135C23.0727 28.942 23.1365 29.0383 23.2321 29.1347C23.7421 29.6165 24.2521 30.0984 24.7939 30.5802C25.5908 31.2869 26.3558 31.9614 27.1526 32.636C27.312 32.7645 27.312 32.8608 27.2482 33.0536C26.2601 36.1052 25.3039 39.1567 24.3158 42.2083C24.1246 42.8508 23.9014 43.4611 23.7102 44.1035C23.3277 45.3241 22.2759 46.0308 20.969 45.9987C19.8534 45.9666 18.8334 45.1314 18.5466 43.9429C18.4191 43.4289 18.4509 42.9471 18.6103 42.4332C20.0447 37.9682 21.4471 33.5354 22.8815 29.0705C22.9133 28.9741 22.9452 28.9098 22.9771 28.8135Z" fill="#3FAB3C"/>
<path d="M25.7503 4.30474C25.7822 1.86348 27.6947 -0.0317196 30.1171 0.000402326C32.4758 0.0325242 34.3883 1.99196 34.3564 4.36898C34.3245 6.77813 32.3802 8.67332 29.9896 8.6412C27.6309 8.60908 25.7185 6.64964 25.7503 4.30474Z" fill="#3FAB3C"/>
<path d="M32.5717 16.0935C33.0498 16.479 33.528 16.8323 33.9742 17.1856C35.7592 18.5669 37.576 19.9481 39.361 21.3615C40.1897 22.0039 40.4766 23.1282 40.0622 24.0597C39.6478 25.0234 38.6597 25.5373 37.6079 25.3446C37.2891 25.2804 36.9385 25.1519 36.6835 24.9591C35.0898 23.7706 33.528 22.5179 31.9342 21.2973C31.8705 21.2651 31.8386 21.1366 31.8386 21.0724C32.0299 19.6912 32.2211 18.3099 32.4124 16.8966C32.508 16.6396 32.5399 16.3826 32.5717 16.0935Z" fill="#3FAB3C"/>
<path d="M12.6178 45.967C11.6935 45.967 10.9604 45.2282 10.9604 44.2967C10.9604 43.3972 11.6935 42.6263 12.6178 42.6584C13.5422 42.6584 14.2434 43.3972 14.2434 44.3288C14.2434 45.2282 13.5422 45.967 12.6178 45.967Z" fill="#3FAB3C"/>
</svg>
