<svg width="20" height="20" viewBox="0 0 20 20" fill="none" xmlns="http://www.w3.org/2000/svg">
<path d="M18.3333 4.99984V7.0165C18.3333 8.33317 17.5 9.1665 16.1833 9.1665H13.3333V3.3415C13.3333 2.4165 14.0917 1.6665 15.0167 1.6665C15.925 1.67484 16.7583 2.0415 17.3583 2.6415C17.9583 3.24984 18.3333 4.08317 18.3333 4.99984Z" stroke="#3FAB3C" stroke-width="1.5" stroke-miterlimit="10" stroke-linecap="round" stroke-linejoin="round"/>
<path d="M1.66667 5.83317V17.4998C1.66667 18.1915 2.44998 18.5832 2.99998 18.1665L4.425 17.0998C4.75833 16.8498 5.225 16.8832 5.525 17.1832L6.90831 18.5748C7.23331 18.8998 7.76668 18.8998 8.09168 18.5748L9.49168 17.1748C9.78334 16.8832 10.25 16.8498 10.575 17.0998L12 18.1665C12.55 18.5748 13.3333 18.1832 13.3333 17.4998V3.33317C13.3333 2.4165 14.0833 1.6665 15 1.6665H5.83333H5C2.5 1.6665 1.66667 3.15817 1.66667 4.99984V5.83317Z" stroke="#3FAB3C" stroke-width="1.5" stroke-miterlimit="10" stroke-linecap="round" stroke-linejoin="round"/>
<path d="M5 7.5H10" stroke="#3FAB3C" stroke-width="1.5" stroke-linecap="round" stroke-linejoin="round"/>
<path d="M5.625 10.8335H9.375" stroke="#3FAB3C" stroke-width="1.5" stroke-linecap="round" stroke-linejoin="round"/>
</svg>
