<svg width="44" height="44" viewBox="0 0 44 44" fill="none" xmlns="http://www.w3.org/2000/svg">
<rect width="44" height="44" rx="10" fill="#ECF7EC"/>
<path d="M23.5837 14.1573L25.1968 17.4103C25.4168 17.8631 26.0034 18.2975 26.4983 18.3806L29.4222 18.8704C31.292 19.1846 31.7319 20.5524 30.3846 21.9016L28.1115 24.1935C27.7265 24.5816 27.5157 25.3302 27.6349 25.8662L28.2856 28.7033C28.7989 30.9489 27.6166 31.8176 25.6459 30.644L22.9054 29.0083C22.4105 28.7125 21.5947 28.7125 21.0906 29.0083L18.3501 30.644C16.3886 31.8176 15.1971 30.9397 15.7104 28.7033L16.3611 25.8662C16.4803 25.3302 16.2695 24.5816 15.8845 24.1935L13.6114 21.9016C12.2733 20.5524 12.704 19.1846 14.5738 18.8704L17.4977 18.3806C17.9835 18.2975 18.5701 17.8631 18.79 17.4103L20.4032 14.1573C21.2831 12.3922 22.7129 12.3922 23.5837 14.1573Z" fill="#3FAB3C"/>
</svg>
