<svg width="44" height="44" viewBox="0 0 44 44" fill="none" xmlns="http://www.w3.org/2000/svg">
<rect width="44" height="44" rx="10" fill="#ECF7EC"/>
<path d="M29.3337 18.8087C29.3337 19.0955 29.0779 19.3334 28.7696 19.3334H15.2311C14.9227 19.3334 14.667 19.0955 14.667 18.8087C14.667 18.5218 14.9227 18.2839 15.2311 18.2839H15.9983L16.2841 17.0176C16.5549 15.7932 17.119 14.6667 19.3603 14.6667H24.6403C26.8817 14.6667 27.4458 15.7932 27.7166 17.0176L28.0024 18.2839H28.7696C29.0779 18.2839 29.3337 18.5218 29.3337 18.8087Z" fill="#3FAB3C"/>
<path d="M29.5747 23.2129C29.4631 21.9809 29.1357 20.6667 26.7472 20.6667H17.2528C14.8643 20.6667 14.5443 21.9809 14.4253 23.2129L14.0086 27.7601C13.9565 28.3275 14.1425 28.895 14.5294 29.3206C14.9238 29.7537 15.4819 30.0001 16.0771 30.0001H17.476C18.6814 30.0001 18.9121 29.3057 19.0609 28.8502L19.2097 28.4022C19.3808 27.887 19.4255 27.7601 20.0952 27.7601H23.9048C24.5745 27.7601 24.5968 27.8347 24.7903 28.4022L24.9391 28.8502C25.0879 29.3057 25.3186 30.0001 26.524 30.0001H27.9229C28.5107 30.0001 29.0762 29.7537 29.4706 29.3206C29.8575 28.895 30.0435 28.3275 29.9914 27.7601L29.5747 23.2129ZM19.7678 24.7734H17.5355C17.2305 24.7734 16.9775 24.5195 16.9775 24.2134C16.9775 23.9073 17.2305 23.6534 17.5355 23.6534H19.7678C20.0728 23.6534 20.3258 23.9073 20.3258 24.2134C20.3258 24.5195 20.0728 24.7734 19.7678 24.7734ZM26.4645 24.7734H24.2322C23.9272 24.7734 23.6742 24.5195 23.6742 24.2134C23.6742 23.9073 23.9272 23.6534 24.2322 23.6534H26.4645C26.7695 23.6534 27.0225 23.9073 27.0225 24.2134C27.0225 24.5195 26.7695 24.7734 26.4645 24.7734Z" fill="#3FAB3C"/>
</svg>
