<svg width="30" height="30" viewBox="0 0 30 30" fill="none" xmlns="http://www.w3.org/2000/svg">
<path d="M26 10.2129C26 10.6432 25.6164 11 25.1538 11H4.84615C4.38359 11 4 10.6432 4 10.2129C4 9.78261 4.38359 9.42579 4.84615 9.42579H5.99692L6.42564 7.52624C6.8318 5.68966 7.67795 4 11.04 4H18.96C22.3221 4 23.1682 5.68966 23.5744 7.52624L24.0031 9.42579H25.1538C25.6164 9.42579 26 9.78261 26 10.2129Z" fill="#3FAB3C"/>
<path d="M26.3621 16.8192C26.1947 14.9712 25.7036 13 22.1208 13H7.87917C4.29643 13 3.8165 14.9712 3.63792 16.8192L3.01289 23.64C2.93476 24.4912 3.21379 25.3424 3.79417 25.9808C4.38572 26.6304 5.22281 27 6.1157 27H8.214C10.0221 27 10.3681 25.9584 10.5913 25.2752L10.8146 24.6032C11.0713 23.8304 11.1382 23.64 12.1427 23.64H17.8573C18.8618 23.64 18.8953 23.752 19.1854 24.6032L19.4087 25.2752C19.6319 25.9584 19.9779 27 21.786 27H23.8843C24.766 27 25.6143 26.6304 26.2058 25.9808C26.7862 25.3424 27.0652 24.4912 26.9871 23.64L26.3621 16.8192ZM11.6516 19.16H8.30329C7.84568 19.16 7.4662 18.7792 7.4662 18.32C7.4662 17.8608 7.84568 17.48 8.30329 17.48H11.6516C12.1093 17.48 12.4887 17.8608 12.4887 18.32C12.4887 18.7792 12.1093 19.16 11.6516 19.16ZM21.6967 19.16H18.3484C17.8907 19.16 17.5113 18.7792 17.5113 18.32C17.5113 17.8608 17.8907 17.48 18.3484 17.48H21.6967C22.1543 17.48 22.5338 17.8608 22.5338 18.32C22.5338 18.7792 22.1543 19.16 21.6967 19.16Z" fill="#3FAB3C"/>
</svg>
