<svg width="30" height="30" viewBox="0 0 30 30" fill="none" xmlns="http://www.w3.org/2000/svg">
<path d="M27.5 26.5625H26.25V18.75C26.25 12.5375 21.2125 7.5 15 7.5C8.7875 7.5 3.75 12.5375 3.75 18.75V26.5625H2.5C1.9875 26.5625 1.5625 26.9875 1.5625 27.5C1.5625 28.0125 1.9875 28.4375 2.5 28.4375H27.5C28.0125 28.4375 28.4375 28.0125 28.4375 27.5C28.4375 26.9875 28.0125 26.5625 27.5 26.5625Z" fill="#3FAB3C"/>
<path d="M15 4.6875C14.4875 4.6875 14.0625 4.2625 14.0625 3.75V2.5C14.0625 1.9875 14.4875 1.5625 15 1.5625C15.5125 1.5625 15.9375 1.9875 15.9375 2.5V3.75C15.9375 4.2625 15.5125 4.6875 15 4.6875Z" fill="#3FAB3C"/>
<path d="M6.2498 7.1873C6.0123 7.1873 5.7748 7.0998 5.5873 6.9123L4.3373 5.6623C3.9748 5.2998 3.9748 4.6998 4.3373 4.3373C4.6998 3.9748 5.2998 3.9748 5.6623 4.3373L6.9123 5.5873C7.2748 5.9498 7.2748 6.5498 6.9123 6.9123C6.7248 7.0998 6.4873 7.1873 6.2498 7.1873Z" fill="#3FAB3C"/>
<path d="M23.7498 7.1873C23.5123 7.1873 23.2748 7.0998 23.0873 6.9123C22.7248 6.5498 22.7248 5.9498 23.0873 5.5873L24.3373 4.3373C24.6998 3.9748 25.2998 3.9748 25.6623 4.3373C26.0248 4.6998 26.0248 5.2998 25.6623 5.6623L24.4123 6.9123C24.2248 7.0998 23.9873 7.1873 23.7498 7.1873Z" fill="#3FAB3C"/>
</svg>
