<svg width="44" height="44" viewBox="0 0 44 44" fill="none" xmlns="http://www.w3.org/2000/svg">
<rect width="44" height="44" rx="10" fill="#ECF7EC"/>
<path d="M30.3337 29.7083H29.5003V24.5C29.5003 20.3583 26.142 17 22.0003 17C17.8587 17 14.5003 20.3583 14.5003 24.5V29.7083H13.667C13.3253 29.7083 13.042 29.9917 13.042 30.3333C13.042 30.675 13.3253 30.9583 13.667 30.9583H30.3337C30.6753 30.9583 30.9587 30.675 30.9587 30.3333C30.9587 29.9917 30.6753 29.7083 30.3337 29.7083Z" fill="#3FAB3C"/>
<path d="M22 15.1251C21.6583 15.1251 21.375 14.8417 21.375 14.5001V13.6667C21.375 13.3251 21.6583 13.0417 22 13.0417C22.3417 13.0417 22.625 13.3251 22.625 13.6667V14.5001C22.625 14.8417 22.3417 15.1251 22 15.1251Z" fill="#3FAB3C"/>
<path d="M16.1662 16.7917C16.0079 16.7917 15.8495 16.7334 15.7245 16.6084L14.8912 15.775C14.6495 15.5334 14.6495 15.1334 14.8912 14.8917C15.1329 14.65 15.5329 14.65 15.7745 14.8917L16.6079 15.725C16.8495 15.9667 16.8495 16.3667 16.6079 16.6084C16.4829 16.7334 16.3245 16.7917 16.1662 16.7917Z" fill="#3FAB3C"/>
<path d="M27.8329 16.7917C27.6745 16.7917 27.5162 16.7334 27.3912 16.6084C27.1495 16.3667 27.1495 15.9667 27.3912 15.725L28.2245 14.8917C28.4662 14.65 28.8662 14.65 29.1079 14.8917C29.3495 15.1334 29.3495 15.5334 29.1079 15.775L28.2745 16.6084C28.1495 16.7334 27.9912 16.7917 27.8329 16.7917Z" fill="#3FAB3C"/>
</svg>
