<svg width="44" height="44" viewBox="0 0 44 44" fill="none" xmlns="http://www.w3.org/2000/svg">
<rect width="44" height="44" rx="10" fill="#ECF7EC"/>
<path d="M24.375 15.2918V18.4585H23.125V15.2918C23.125 15.0668 22.925 14.9585 22.7917 14.9585C22.75 14.9585 22.7083 14.9668 22.6667 14.9835L16.0583 17.4752C15.6167 17.6418 15.3333 18.0585 15.3333 18.5335V19.0918C14.575 19.6585 14.0833 20.5668 14.0833 21.5918V18.5335C14.0833 17.5418 14.6917 16.6585 15.6167 16.3085L22.2333 13.8085C22.4167 13.7418 22.6083 13.7085 22.7917 13.7085C23.625 13.7085 24.375 14.3835 24.375 15.2918Z" fill="#3FAB3C"/>
<path d="M29.9167 24.0832V24.9165C29.9167 25.1415 29.7417 25.3248 29.5083 25.3332H28.2917C27.85 25.3332 27.45 25.0082 27.4167 24.5748C27.3917 24.3165 27.4917 24.0748 27.6583 23.9082C27.8083 23.7498 28.0167 23.6665 28.2417 23.6665H29.5C29.7417 23.6748 29.9167 23.8582 29.9167 24.0832Z" fill="#3FAB3C"/>
<path d="M28.2333 22.7918H29.0833C29.5417 22.7918 29.9167 22.4168 29.9167 21.9585V21.5918C29.9167 19.8668 28.5083 18.4585 26.7833 18.4585H17.2167C16.5083 18.4585 15.8583 18.6918 15.3333 19.0918C14.575 19.6585 14.0833 20.5668 14.0833 21.5918V27.2002C14.0833 28.9252 15.4917 30.3335 17.2167 30.3335H26.7833C28.5083 30.3335 29.9167 28.9252 29.9167 27.2002V27.0418C29.9167 26.5835 29.5417 26.2085 29.0833 26.2085H28.3583C27.5583 26.2085 26.7917 25.7168 26.5833 24.9418C26.4083 24.3085 26.6167 23.7002 27.0333 23.2918C27.3417 22.9752 27.7667 22.7918 28.2333 22.7918ZM23.6667 22.6252H17.8333C17.4917 22.6252 17.2083 22.3418 17.2083 22.0002C17.2083 21.6585 17.4917 21.3752 17.8333 21.3752H23.6667C24.0083 21.3752 24.2917 21.6585 24.2917 22.0002C24.2917 22.3418 24.0083 22.6252 23.6667 22.6252Z" fill="#3FAB3C"/>
</svg>
